<svg xmlns="http://www.w3.org/2000/svg" x="0px" y="0px"
width="64" height="64"
viewBox="0 0 64 64"
style=" fill:#000000;">
<radialGradient id="0F-F0qyoJiO_vIVyk_kdfa" cx="32" cy="-1100.5" r="51.925" 
gradientTransform="matrix(1 0 0 -1 0 -1068)" gradientUnits="userSpaceOnUse">
<stop offset="0" stop-color="#9ceeff"></stop><stop offset=".642" stop-color="#c5f5ff">
</stop><stop offset="1" stop-color="#dcf9ff"></stop>
</radialGradient>
<path fill="url(#undefined)" d="M60.5,31c1.995,0,3.6-1.669,3.495-3.688C63.896,25.419,62.197,24,60.302,24H59.5	c-0.828,0-1.5-0.671-1.5-1.5s0.672-1.5,1.5-1.5h0.802c1.895,0,3.594-1.419,3.693-3.312C64.1,15.669,62.495,14,60.5,14h-1.393	c-0.996,0-1.92-0.681-2.08-1.664C56.823,11.083,57.785,10,59,10h0.302c1.895,0,3.594-1.419,3.693-3.312	C63.101,4.669,61.495,3,59.5,3H4.698C2.803,3,1.104,4.419,1.005,6.312C0.899,8.331,2.505,10,4.5,10h0.393	c0.996,0,1.92,0.681,2.08,1.664C7.177,12.917,6.215,14,5,14H3.698c-1.895,0-3.594,1.419-3.693,3.312C-0.101,19.331,1.505,21,3.5,21	C4.328,21,5,21.671,5,22.5S4.328,24,3.5,24h0.198c-1.895,0-3.594,1.419-3.693,3.312C-0.101,29.331,1.505,31,3.5,31l0,0	C4.328,31,5,31.672,5,32.5l0,0C5,33.328,4.328,34,3.5,34l0,0c-1.995,0-3.6,1.669-3.495,3.688C0.104,39.581,1.803,41,3.698,41H4.5	C5.328,41,6,41.671,6,42.5C6,43.328,5.328,44,4.5,44H3.698c-1.895,0-3.594,1.419-3.693,3.312C-0.101,49.331,1.505,51,3.5,51h1.393	c0.996,0,1.92,0.681,2.08,1.664C7.176,53.917,6.215,55,5,55H4.698c-1.895,0-3.594,1.419-3.693,3.312C0.899,60.331,2.505,62,4.5,62	h54.802c1.895,0,3.594-1.419,3.693-3.312C63.1,56.669,61.495,55,59.5,55H59c-1.105,0-2-0.896-2-2l0,0c0-1.104,0.895-2,2-2h1.302	c1.895,0,3.594-1.419,3.693-3.312C64.1,45.669,62.495,44,60.5,44c-0.828,0-1.5-0.672-1.5-1.5l0,0c0-0.829,0.672-1.5,1.5-1.5h-0.198	c1.895,0,3.594-1.419,3.693-3.312C64.101,35.669,62.495,34,60.5,34l0,0c-0.828,0-1.5-0.672-1.5-1.5l0,0C59,31.672,59.672,31,60.5,31	L60.5,31z"></path><linearGradient id="0F-F0qyoJiO_vIVyk_kdfb_wV09Rqzv7s8J_gr1" x1="32" x2="32" y1="-1124.075" y2="-1072.49" gradientTransform="matrix(1 0 0 -1 0 -1068)" gradientUnits="userSpaceOnUse"><stop offset=".128" stop-color="#dbdee1"></stop><stop offset=".202" stop-color="#dee1e4"></stop><stop offset=".657" stop-color="#eff1f2"></stop><stop offset="1" stop-color="#f5f6f7"></stop></linearGradient><path fill="url(#0F-F0qyoJiO_vIVyk_kdfb_wV09Rqzv7s8J_gr1)" d="M18,8h28c5.523,0,10,4.477,10,10v28	c0,5.523-4.477,10-10,10H18c-5.523,0-10-4.477-10-10V18C8,12.477,12.477,8,18,8z"></path><linearGradient id="0F-F0qyoJiO_vIVyk_kdfc_wV09Rqzv7s8J_gr2" x1="32" x2="32" y1="19" y2="52" gradientTransform="matrix(1 0 0 -1 0 66)" gradientUnits="userSpaceOnUse"><stop offset="0" stop-color="#e68418"></stop><stop offset="1" stop-color="#f98f1b"></stop></linearGradient><path fill="url(#0F-F0qyoJiO_vIVyk_kdfc_wV09Rqzv7s8J_gr2)" d="M49.607,27.206L46,24.447V20	c0-0.552-0.448-1-1-1h-2c-0.552,0-1,0.448-1,1v1.389l-9.393-7.183c-0.358-0.275-0.856-0.275-1.215,0l-17,13	c-0.341,0.26-0.477,0.709-0.34,1.114C14.19,28.727,14.571,29,15,29h3v16c0,1.105,0.895,2,2,2h24c1.105,0,2-0.895,2-2V29h3	c0.429,0,0.81-0.273,0.947-0.68C50.084,27.915,49.948,27.466,49.607,27.206z"></path><linearGradient id="0F-F0qyoJiO_vIVyk_kdfd_wV09Rqzv7s8J_gr3" x1="32" x2="32" y1="22" y2="48.482" gradientTransform="matrix(1 0 0 -1 0 66)" gradientUnits="userSpaceOnUse"><stop offset="0" stop-color="#f7a81f"></stop><stop offset="1" stop-color="#feac20"></stop></linearGradient><polygon fill="url(#0F-F0qyoJiO_vIVyk_kdfd_wV09Rqzv7s8J_gr3)" points="32,17.518 43,25.93 43,44 21,44 21,25.93"></polygon><linearGradient id="0F-F0qyoJiO_vIVyk_kdfe_wV09Rqzv7s8J_gr4" x1="32" x2="32" y1="25" y2="44.705" gradientTransform="matrix(1 0 0 -1 0 66)" gradientUnits="userSpaceOnUse"><stop offset="0" stop-color="#febd40"></stop><stop offset="1" stop-color="#fec14a"></stop></linearGradient><polygon fill="url(#0F-F0qyoJiO_vIVyk_kdfe_wV09Rqzv7s8J_gr4)" points="32,21.295 40,27.412 40,41 24,41 24,27.412"></polygon><linearGradient id="0F-F0qyoJiO_vIVyk_kdff_wV09Rqzv7s8J_gr5" x1="32" x2="32" y1="28" y2="40.929" gradientTransform="matrix(1 0 0 -1 0 66)" gradientUnits="userSpaceOnUse"><stop offset="0" stop-color="#fed05e"></stop><stop offset="1" stop-color="#fee075"></stop></linearGradient><polyline fill="url(#0F-F0qyoJiO_vIVyk_kdff_wV09Rqzv7s8J_gr5)" points="32,25.071 37,28.895 37,38 27,38 27,28.895 32,25.071">
</polyline></svg>